<?xml version="1.0" encoding="UTF-8"?>
<svg width="200px" height="200px" viewBox="0 0 200 200" version="1.1" xmlns="http://www.w3.org/2000/svg" xmlns:xlink="http://www.w3.org/1999/xlink">
    <!-- Generator: Sketch 51.3 (57544) - http://www.bohemiancoding.com/sketch -->
    <title>dodecahedron</title>
    <desc>Created with Sketch.</desc>
    <defs>
        <radialGradient cx="50%" cy="0%" fx="50%" fy="0%" r="103.200287%" gradientTransform="translate(0.500000,0.000000),scale(1.000000,0.968990),rotate(90.000000),translate(-0.500000,-0.000000)" id="radialGradient-1">
            <stop stop-color="#58B688" stop-opacity="0.8" offset="0%"></stop>
            <stop stop-color="#58B688" offset="100%"></stop>
        </radialGradient>
    </defs>
    <g id="dodecahedron" stroke="none" stroke-width="1" fill="none" fill-rule="evenodd">
        <g id="Group" transform="translate(55.000000, 54.000000)" fill-rule="nonzero">
            <path d="M90.07,35.37 L85.47,24.12 C85.4041553,23.9586573 85.2972918,23.8173217 85.16,23.71 L58.23,2.85 C58.0904361,2.74217191 57.9248372,2.67317237 57.75,2.65 L45.71,1 C45.5368042,0.978427325 45.3609784,1.00256029 45.2,1.07 L13.67,14 C13.5086573,14.0658447 13.3673217,14.1727082 13.26,14.31 L5.81,23.89 C5.70217191,24.0295639 5.63317237,24.1951628 5.61,24.37 L1,58.12 C0.978427325,58.2931958 1.00256029,58.4690216 1.07,58.63 L5.67,69.88 C5.73584469,70.0413427 5.84270819,70.1826783 5.98,70.29 L32.92,91.15 C33.0595639,91.2578281 33.2251628,91.3268276 33.4,91.35 L45.4,92.99 L45.53,92.99 C45.6600129,92.9915929 45.7890887,92.9678158 45.91,92.92 L77.48,80 C77.6413427,79.9341553 77.7826783,79.8272918 77.89,79.69 L85.33,70.08 C85.4378281,69.9404361 85.5068276,69.7748372 85.53,69.6 L90.13,35.85 C90.1495834,35.6875008 90.1289806,35.5226787 90.07,35.37 Z" id="Path" fill="url(#radialGradient-1)"></path>
            <polygon id="Path" stroke="#FFFFFF" points="85 23.5324347 77.6573427 52 46.0944056 47.3885019 34 15.7941158 57.8636364 0.992331583"></polygon>
            <path d="M26.0651518,72.7814924 L45.6229555,47.5456167 L77.2621362,51.8567048 L77.2621362,79.6139534 L45.5246814,92.5898348 L26.0651518,72.7814924 Z" id="Path" stroke="#FFFFFF"></path>
            <path d="M12.768802,14.2405822 L47.1882457,-0.514769789 L58.4919774,1.09600431 L33.6853197,16.0999523 L33.5567611,16.1548693 L5.73413795,23.659302 L12.768802,14.2405822 Z" id="Path" stroke="#FFFFFF"></path>
            <path d="M6.13431204,23.4007063 L33.2686028,16.2486236 L45.5704351,47.1096892 L25.7273504,72.6538128 L1.46045348,58.3759986 L6.13431204,23.4007063 Z" id="Path" stroke="#FFFFFF"></path>
            <path d="M5.36888172,69.2833951 L0.976584852,58.6365702 L25.9823097,73.101922 L26.0882166,73.1839109 L46.2831033,93.6932508 L34.8829996,92.1398583 L5.36888172,69.2833951 Z" id="Path" stroke="#FFFFFF"></path>
            <path d="M84.0916292,72.9768408 L84.1722303,72.871424 L84.0739087,73.108352 L84.0916292,72.9768408 Z M85.0472319,73.3734015 L77.5,83.244298 L77.5,51.7435471 L77.5177977,51.6113315 L85.8455393,21.2393006 L90.5131919,32.8082289 L85.0472319,73.3734015 Z" id="Path" stroke="#FFFFFF"></path>
        </g>
    </g>
</svg>