<?xml version="1.0" encoding="UTF-8"?>
<svg width="200px" height="200px" viewBox="0 0 200 200" version="1.1" xmlns="http://www.w3.org/2000/svg" xmlns:xlink="http://www.w3.org/1999/xlink">
    <!-- Generator: Sketch 51.3 (57544) - http://www.bohemiancoding.com/sketch -->
    <title>torus</title>
    <desc>Created with Sketch.</desc>
    <defs>
        <radialGradient cx="7.99718843%" cy="-72.2876773%" fx="7.99718843%" fy="-72.2876773%" r="100%" gradientTransform="translate(0.079972,-0.722877),scale(0.604396,1.000000),rotate(90.000000),translate(-0.079972,0.722877)" id="radialGradient-1">
            <stop stop-color="#58B688" stop-opacity="0.8" offset="0%"></stop>
            <stop stop-color="#58B688" offset="100%"></stop>
        </radialGradient>
    </defs>
    <g id="torus" stroke="none" stroke-width="1" fill="none" fill-rule="evenodd">
        <g id="Group" transform="translate(54.000000, 72.000000)" fill-rule="nonzero">
            <path d="M45.998,54.5 C21.462,54.5 1.5,42.611 1.5,27.999 C1.5,13.387 21.462,1.5 45.998,1.5 C70.536,1.5 90.5,13.387 90.5,27.999 C90.5,42.611 70.536,54.5 45.998,54.5 Z" id="Shape" fill="#000000"></path>
            <path d="M45.998,0.5 C20.91,0.5 0.5,12.835 0.5,27.999 C0.5,43.164 20.91,55.5 45.998,55.5 C71.088,55.5 91.5,43.164 91.5,27.999 C91.5,12.835 71.088,0.5 45.998,0.5 Z" id="Path" fill="url(#radialGradient-1)"></path>
            <path d="M71.863,20.436 C71.63,20.584 71.56,20.893 71.71,21.126 C72.343,22.12 72.484,23.164 72.135,24.23 C71.53,26.073 69.6,27.537 67.949,28.173 C67.175,28.486 66.37,28.783 65.544,29.061 C54.6,20.317 36.608,20.244 25.984,28.868 C25.203,28.595 24.441,28.306 23.708,27.998 C23.708,27.998 23.707,27.998 23.706,27.997 C23.705,27.997 23.704,27.996 23.702,27.995 C21.951,27.287 20.466,25.879 19.918,24.408 C19.55,23.422 19.605,22.451 20.08,21.523 C20.206,21.278 20.109,20.976 19.863,20.85 C19.617,20.726 19.316,20.823 19.19,21.068 C18.59,22.239 18.518,23.514 18.981,24.756 C19.623,26.479 21.329,28.113 23.328,28.922 C23.329,28.922 23.33,28.922 23.332,28.924 C29.608,31.551 37.67,33 46.036,33 C54.201,33 62.117,31.615 68.316,29.104 C70.588,28.229 72.462,26.437 73.085,24.543 C73.527,23.198 73.344,21.831 72.555,20.59 C72.405,20.357 72.098,20.289 71.863,20.436 Z" id="Shape" fill="#FFFFFF"></path>
            <path d="M27.151,29.242 C37.311,21.453 53.887,21.527 64.352,29.426 C58.924,31.088 52.574,32 46.036,32 C39.254,32 32.699,31.023 27.151,29.242 Z" id="Path" fill="#FFFFFF"></path>
        </g>
    </g>
</svg>